<?xml version="1.0" standalone="no"?>
<!DOCTYPE svg PUBLIC "-//W3C//DTD SVG 20010904//EN"
 "http://www.w3.org/TR/2001/REC-SVG-20010904/DTD/svg10.dtd">
<svg version="1.0" xmlns="http://www.w3.org/2000/svg"
 width="301.000000pt" height="165.000000pt" viewBox="0 0 301.000000 165.000000"
 preserveAspectRatio="xMidYMid meet">
<metadata>
Created by potrace 1.16, written by Peter Selinger 2001-2019
</metadata>
<g transform="translate(0.000000,165.000000) scale(0.100000,-0.100000)"
fill="#000000" stroke="none">
<path d="M0 825 l0 -825 1500 0 1500 0 0 825 0 825 -1500 0 -1500 0 0 -825z
m220 205 c12 -12 15 -20 8 -20 -7 0 -4 -6 7 -12 28 -16 36 -31 23 -43 -7 -7
-12 -6 -15 1 -5 16 -80 -56 -92 -89 -25 -65 -5 -128 51 -168 27 -20 50 -24
143 -30 60 -3 104 -6 98 -7 -26 -4 -13 -32 14 -32 25 0 25 -1 10 -18 -22 -24
-21 -28 6 -37 14 -5 -23 -11 -103 -15 -106 -6 -132 -4 -173 11 -69 25 -108 59
-142 120 -24 45 -29 66 -29 124 -1 100 42 173 129 218 39 21 41 21 65 -3z
m976 10 c77 0 84 -2 84 -20 0 -18 -7 -20 -85 -20 l-85 0 0 -54 c0 -30 -4 -58
-10 -61 -13 -8 -13 -35 -1 -35 5 0 11 6 14 13 2 6 2 1 1 -13 -2 -14 -4 -50 -6
-80 l-2 -55 49 -6 50 -6 -57 -1 c-49 -2 -58 1 -63 18 -4 12 -1 27 5 35 10 12
10 15 0 15 -10 0 -12 20 -8 83 3 45 3 71 0 57 -4 -23 -5 -24 -13 -5 -5 13 -8
-8 -8 -57 -1 -45 3 -78 9 -78 6 0 6 -9 1 -22 -4 -13 -6 -29 -3 -37 3 -8 0 -11
-7 -7 -7 5 -11 60 -11 171 0 147 2 164 18 168 9 3 23 3 30 1 8 -2 52 -4 98 -4z
m217 -2 c9 -7 30 -37 46 -67 l29 -54 38 67 c35 61 41 66 72 66 l34 0 -27 -47
c-15 -27 -39 -63 -52 -80 -19 -26 -23 -40 -17 -68 3 -20 12 -42 20 -49 7 -8
10 -17 7 -20 -4 -4 -13 4 -20 16 l-14 23 7 -25 c6 -22 5 -23 -9 -11 -9 7 -14
17 -11 22 9 15 -7 51 -20 46 -7 -3 -17 -2 -23 1 -11 8 -123 176 -123 186 0 11
46 6 63 -6z m520 -14 c24 -18 47 -54 47 -74 0 -6 -13 -10 -29 -10 -23 0 -33 7
-43 28 -10 21 -21 28 -52 30 -55 5 -82 -23 -91 -96 -9 -72 -19 -99 -39 -99
-13 0 -16 14 -16 76 0 89 21 133 73 157 41 19 116 13 150 -12z m367 1 c0 -25
-1 -25 -80 -25 l-80 0 0 -50 0 -50 64 0 c36 0 67 -4 70 -8 12 -19 -14 -31 -72
-33 l-62 -2 0 -36 c0 -20 -3 -46 -6 -58 -6 -20 -2 -22 52 -26 l59 -3 -63 -2
c-42 -1 -61 -6 -56 -13 4 -7 -2 -9 -17 -7 -17 2 -23 11 -26 33 -3 23 -1 26 7
15 6 -9 10 -10 10 -3 0 6 -4 15 -10 18 -6 4 -10 62 -10 141 l0 134 110 0 110
0 0 -25z m151 -127 c-2 -137 -1 -148 18 -157 25 -14 41 -14 21 -1 -11 7 5 10
53 10 60 0 67 -2 67 -20 0 -19 -7 -20 -104 -20 l-104 0 -5 27 c-3 15 -6 92 -6
171 l-2 143 32 -3 31 -3 -1 -147z m453 125 c54 -40 60 -97 15 -148 l-31 -35
36 -70 37 -70 -33 0 c-30 0 -36 5 -67 65 -32 60 -38 65 -68 65 l-33 0 0 -64 0
-65 -30 1 -29 1 -3 164 c-2 90 -1 168 1 175 6 18 175 3 205 -19z"/>
</g>
</svg>
